<svg width="215" height="36" viewBox="0 0 215 36" fill="none" xmlns="http://www.w3.org/2000/svg">
<g clip-path="url(#clip0_0_1)">
<path d="M24.8457 21.7634L32.8539 13.7551C35.677 10.9321 35.677 6.32305 32.8539 3.5L31.4712 2.11728C28.6482 -0.705761 24.0391 -0.705761 21.2161 2.11728L13.2654 10.1831L24.8457 21.7634Z" fill="#F15249"/>
<path d="M10.1543 13.2366L2.14609 21.2449C-0.676953 24.0679 -0.676953 28.677 2.14609 31.5L3.52881 32.8827C6.35185 35.7058 10.9609 35.7058 13.784 32.8827L21.7922 24.8745L10.1543 13.2366Z" fill="#3AC2F2"/>
<path d="M19.8333 16.751L24.8457 21.7634L32.8539 13.7551C35.6769 10.9321 35.6769 6.32305 32.8539 3.5" fill="#C93131"/>
<path d="M3.52881 32.8827C6.35185 35.7058 10.9609 35.7058 13.784 32.8827L21.7922 24.8745L16.6646 19.7469" fill="#009CC6"/>
</g>
<path d="M40.7864 35V6.6H47.3464V29.24H61.1064V35H40.7864ZM73.5877 35.4C71.801 35.4 70.2143 35.12 68.8277 34.56C67.441 33.9733 66.2543 33.1867 65.2677 32.2C64.3077 31.2133 63.5743 30.08 63.0677 28.8C62.561 27.4933 62.3077 26.1333 62.3077 24.72C62.3077 22.6933 62.7477 20.8533 63.6277 19.2C64.5343 17.52 65.8277 16.1733 67.5077 15.16C69.1877 14.12 71.2143 13.6 73.5877 13.6C75.961 13.6 77.9743 14.1067 79.6277 15.12C81.3077 16.1333 82.5877 17.4667 83.4677 19.12C84.3477 20.7467 84.7877 22.52 84.7877 24.44C84.7877 24.8133 84.761 25.1867 84.7077 25.56C84.681 25.9067 84.6543 26.2133 84.6277 26.48H69.1077C69.1877 27.4133 69.441 28.2 69.8677 28.84C70.321 29.48 70.8943 29.9733 71.5877 30.32C72.281 30.64 73.0143 30.8 73.7877 30.8C74.7477 30.8 75.641 30.5733 76.4677 30.12C77.321 29.6667 77.9077 29.0533 78.2277 28.28L83.6677 29.8C83.1343 30.8933 82.3743 31.8667 81.3877 32.72C80.4277 33.5467 79.281 34.2 77.9477 34.68C76.641 35.16 75.1877 35.4 73.5877 35.4ZM68.9477 22.56H78.0677C77.961 21.68 77.7077 20.92 77.3077 20.28C76.9077 19.6133 76.3743 19.1067 75.7077 18.76C75.041 18.3867 74.3077 18.2 73.5077 18.2C72.681 18.2 71.9343 18.3867 71.2677 18.76C70.6277 19.1067 70.1077 19.6133 69.7077 20.28C69.3077 20.92 69.0543 21.68 68.9477 22.56ZM101.808 35L96.3283 26.6L94.0883 28.88V35H87.6883V5.8H94.0883V22.68L101.208 14H107.968L100.408 23.04L108.608 35H101.808ZM119.407 35.4C117.62 35.4 116.02 35.1067 114.607 34.52C113.22 33.9333 112.047 33.1333 111.087 32.12C110.127 31.1067 109.394 29.9467 108.887 28.64C108.407 27.3333 108.167 25.96 108.167 24.52C108.167 23.0533 108.407 21.6667 108.887 20.36C109.394 19.0533 110.127 17.8933 111.087 16.88C112.047 15.8667 113.22 15.0667 114.607 14.48C116.02 13.8933 117.62 13.6 119.407 13.6C121.194 13.6 122.78 13.8933 124.167 14.48C125.554 15.0667 126.727 15.8667 127.687 16.88C128.647 17.8933 129.38 19.0533 129.887 20.36C130.394 21.6667 130.647 23.0533 130.647 24.52C130.647 25.96 130.394 27.3333 129.887 28.64C129.38 29.9467 128.647 31.1067 127.687 32.12C126.727 33.1333 125.554 33.9333 124.167 34.52C122.78 35.1067 121.194 35.4 119.407 35.4ZM114.727 24.52C114.727 25.6133 114.927 26.5733 115.327 27.4C115.754 28.2267 116.314 28.8667 117.007 29.32C117.7 29.7733 118.5 30 119.407 30C120.287 30 121.074 29.7733 121.767 29.32C122.487 28.84 123.047 28.1867 123.447 27.36C123.847 26.5333 124.047 25.5867 124.047 24.52C124.047 23.4267 123.847 22.4667 123.447 21.64C123.047 20.8133 122.487 20.1733 121.767 19.72C121.074 19.2667 120.287 19.04 119.407 19.04C118.5 19.04 117.7 19.2667 117.007 19.72C116.314 20.1733 115.754 20.8133 115.327 21.64C114.927 22.4667 114.727 23.4267 114.727 24.52Z" fill="white"/>
<path d="M167.021 35H160.621V23.2C160.621 21.84 160.368 20.84 159.861 20.2C159.354 19.56 158.701 19.24 157.901 19.24C157.048 19.24 156.208 19.5867 155.381 20.28C154.554 20.9733 153.968 21.8667 153.621 22.96V35H147.221V23.2C147.221 21.8133 146.968 20.8133 146.461 20.2C145.954 19.56 145.301 19.24 144.501 19.24C143.674 19.24 142.848 19.5867 142.021 20.28C141.194 20.9733 140.594 21.8667 140.221 22.96V35H133.821V14H139.581V17.52C140.354 16.2667 141.394 15.3067 142.701 14.64C144.034 13.9467 145.581 13.6 147.341 13.6C149.074 13.6 150.408 14.0133 151.341 14.84C152.274 15.64 152.874 16.5867 153.141 17.68C153.941 16.3733 154.994 15.3733 156.301 14.68C157.634 13.96 159.128 13.6 160.781 13.6C162.114 13.6 163.194 13.8533 164.021 14.36C164.848 14.84 165.474 15.48 165.901 16.28C166.328 17.08 166.621 17.9467 166.781 18.88C166.941 19.7867 167.021 20.68 167.021 21.56V35ZM169.884 28.72C169.884 27.3333 170.271 26.12 171.044 25.08C171.817 24.04 172.884 23.2267 174.244 22.64C175.604 22.0267 177.164 21.72 178.924 21.72C179.777 21.72 180.617 21.8 181.444 21.96C182.271 22.0933 182.991 22.2933 183.604 22.56V21.64C183.604 20.4933 183.257 19.6133 182.564 19C181.871 18.3867 180.817 18.08 179.404 18.08C178.231 18.08 177.124 18.28 176.084 18.68C175.071 19.08 173.991 19.6533 172.844 20.4L170.924 16.32C172.311 15.4133 173.751 14.7333 175.244 14.28C176.764 13.8267 178.364 13.6 180.044 13.6C183.191 13.6 185.631 14.36 187.364 15.88C189.124 17.3733 190.004 19.5467 190.004 22.4V27.88C190.004 28.52 190.097 28.9733 190.284 29.24C190.497 29.48 190.857 29.6267 191.364 29.68V35C190.831 35.1067 190.324 35.1867 189.844 35.24C189.391 35.2933 188.991 35.32 188.644 35.32C187.444 35.32 186.524 35.08 185.884 34.6C185.271 34.12 184.884 33.4667 184.724 32.64L184.604 31.72C183.671 32.92 182.551 33.84 181.244 34.48C179.964 35.0933 178.617 35.4 177.204 35.4C175.817 35.4 174.564 35.1067 173.444 34.52C172.351 33.9333 171.484 33.1333 170.844 32.12C170.204 31.1067 169.884 29.9733 169.884 28.72ZM182.604 29.52C182.897 29.28 183.137 29.0133 183.324 28.72C183.511 28.4267 183.604 28.1467 183.604 27.88V26C183.071 25.7867 182.471 25.6267 181.804 25.52C181.164 25.3867 180.564 25.32 180.004 25.32C178.831 25.32 177.857 25.5867 177.084 26.12C176.311 26.6267 175.924 27.3067 175.924 28.16C175.924 28.64 176.057 29.08 176.324 29.48C176.591 29.88 176.951 30.2 177.404 30.44C177.884 30.68 178.444 30.8 179.084 30.8C179.724 30.8 180.364 30.68 181.004 30.44C181.644 30.2 182.177 29.8933 182.604 29.52ZM214.881 35H208.481V23.2C208.481 21.8133 208.215 20.8133 207.681 20.2C207.175 19.56 206.495 19.24 205.641 19.24C205.055 19.24 204.455 19.4 203.841 19.72C203.228 20.04 202.668 20.48 202.161 21.04C201.681 21.6 201.308 22.24 201.041 22.96V35H194.641V14H200.401V17.52C200.935 16.6933 201.601 15.9867 202.401 15.4C203.201 14.8133 204.121 14.3733 205.161 14.08C206.201 13.76 207.335 13.6 208.561 13.6C209.921 13.6 211.015 13.8533 211.841 14.36C212.695 14.84 213.335 15.48 213.761 16.28C214.215 17.08 214.508 17.9467 214.641 18.88C214.801 19.7867 214.881 20.68 214.881 21.56V35Z" fill="#F15249"/>
<defs>
<clipPath id="clip0_0_1">
<rect width="35" height="35" fill="white"/>
</clipPath>
</defs>
</svg>
